<svg width="18" height="29" viewBox="0 0 18 29" fill="none" xmlns="http://www.w3.org/2000/svg">
<path d="M17.5166 12.3398V16.459C17.5166 18.6732 17.3187 20.541 16.9229 22.0625C16.527 23.584 15.958 24.8086 15.2158 25.7363C14.4736 26.6641 13.5768 27.3382 12.5254 27.7588C11.4863 28.167 10.3112 28.3711 9 28.3711C7.96094 28.3711 7.00228 28.2412 6.12402 27.9814C5.24577 27.7217 4.4541 27.3073 3.74902 26.7383C3.05632 26.1569 2.46257 25.4023 1.96777 24.4746C1.47298 23.5469 1.0957 22.4212 0.835938 21.0977C0.576172 19.7741 0.446289 18.2279 0.446289 16.459V12.3398C0.446289 10.1257 0.644206 8.27018 1.04004 6.77344C1.44824 5.27669 2.02344 4.07682 2.76562 3.17383C3.50781 2.25846 4.39844 1.60286 5.4375 1.20703C6.48893 0.811198 7.66406 0.613281 8.96289 0.613281C10.0143 0.613281 10.9792 0.743164 11.8574 1.00293C12.748 1.25033 13.5397 1.65234 14.2324 2.20898C14.9251 2.75326 15.5127 3.48307 15.9951 4.39844C16.4899 5.30143 16.8672 6.40853 17.127 7.71973C17.3867 9.03092 17.5166 10.571 17.5166 12.3398ZM14.0654 17.0156V11.7646C14.0654 10.5524 13.9912 9.48861 13.8428 8.57324C13.7067 7.64551 13.5026 6.85384 13.2305 6.19824C12.9583 5.54264 12.612 5.01074 12.1914 4.60254C11.7832 4.19434 11.307 3.89746 10.7627 3.71191C10.2308 3.514 9.63086 3.41504 8.96289 3.41504C8.14648 3.41504 7.42285 3.56966 6.79199 3.87891C6.16113 4.17578 5.62923 4.65202 5.19629 5.30762C4.77572 5.96322 4.4541 6.82292 4.23145 7.88672C4.00879 8.95052 3.89746 10.2432 3.89746 11.7646V17.0156C3.89746 18.2279 3.96549 19.2979 4.10156 20.2256C4.25 21.1533 4.46647 21.9574 4.75098 22.6377C5.03548 23.3057 5.38184 23.8561 5.79004 24.2891C6.19824 24.722 6.66829 25.0436 7.2002 25.2539C7.74447 25.4518 8.3444 25.5508 9 25.5508C9.84115 25.5508 10.5771 25.39 11.208 25.0684C11.8389 24.7467 12.3646 24.2458 12.7852 23.5654C13.2181 22.8727 13.5397 21.9883 13.75 20.9121C13.9603 19.8236 14.0654 18.5247 14.0654 17.0156Z" fill="url(#paint0_linear_891_7984)"/>
<defs>
<linearGradient id="paint0_linear_891_7984" x1="12.5108" y1="47.0027" x2="1.21117" y2="46.0715" gradientUnits="userSpaceOnUse">
<stop stop-color="#3CB6E2"/>
<stop offset="0.749271" stop-color="#60C8EE"/>
</linearGradient>
</defs>
</svg>
