<svg width="19" height="28" viewBox="0 0 19 28" fill="none" xmlns="http://www.w3.org/2000/svg">
<path d="M18.2588 25.1797V28H0.576172V25.5322L9.42676 15.6797C10.5153 14.4674 11.3564 13.4408 11.9502 12.5996C12.5563 11.7461 12.9769 10.9854 13.2119 10.3174C13.4593 9.63704 13.583 8.94434 13.583 8.23926C13.583 7.34863 13.3975 6.5446 13.0264 5.82715C12.6676 5.09733 12.1357 4.51595 11.4307 4.08301C10.7256 3.65007 9.87207 3.43359 8.87012 3.43359C7.67025 3.43359 6.66829 3.66862 5.86426 4.13867C5.07259 4.59635 4.47884 5.23958 4.08301 6.06836C3.68717 6.89714 3.48926 7.84961 3.48926 8.92578H0.0566406C0.0566406 7.4043 0.390625 6.0127 1.05859 4.75098C1.72656 3.48926 2.71615 2.4873 4.02734 1.74512C5.33854 0.99056 6.9528 0.613281 8.87012 0.613281C10.5771 0.613281 12.0368 0.916341 13.249 1.52246C14.4613 2.11621 15.389 2.95736 16.0322 4.0459C16.6878 5.12207 17.0156 6.38379 17.0156 7.83105C17.0156 8.62272 16.8796 9.42676 16.6074 10.2432C16.3477 11.0472 15.9827 11.8512 15.5127 12.6553C15.055 13.4593 14.5169 14.251 13.8984 15.0303C13.2923 15.8096 12.6429 16.5765 11.9502 17.3311L4.71387 25.1797H18.2588Z" fill="url(#paint0_linear_891_7335)"/>
<defs>
<linearGradient id="paint0_linear_891_7335" x1="12.5108" y1="47.0027" x2="1.21117" y2="46.0715" gradientUnits="userSpaceOnUse">
<stop stop-color="#3CB6E2"/>
<stop offset="0.749271" stop-color="#60C8EE"/>
</linearGradient>
</defs>
</svg>
