<svg width="18" height="29" viewBox="0 0 18 29" fill="none" xmlns="http://www.w3.org/2000/svg">
<path d="M5.56738 12.8037H8.0166C9.21647 12.8037 10.2061 12.6058 10.9854 12.21C11.777 11.8018 12.3646 11.2513 12.748 10.5586C13.1439 9.85352 13.3418 9.06185 13.3418 8.18359C13.3418 7.14453 13.1686 6.27246 12.8223 5.56738C12.4759 4.8623 11.9564 4.3304 11.2637 3.97168C10.571 3.61296 9.69271 3.43359 8.62891 3.43359C7.66406 3.43359 6.81055 3.62533 6.06836 4.00879C5.33854 4.37988 4.76335 4.91178 4.34277 5.60449C3.93457 6.2972 3.73047 7.11361 3.73047 8.05371H0.297852C0.297852 6.68066 0.644206 5.43132 1.33691 4.30566C2.02962 3.18001 3.00065 2.2832 4.25 1.61523C5.51172 0.947266 6.97135 0.613281 8.62891 0.613281C10.2617 0.613281 11.6904 0.903971 12.915 1.48535C14.1396 2.05436 15.0921 2.90788 15.7725 4.0459C16.4528 5.17155 16.793 6.57552 16.793 8.25781C16.793 8.93815 16.6322 9.66797 16.3105 10.4473C16.0013 11.2142 15.5127 11.9316 14.8447 12.5996C14.1891 13.2676 13.3356 13.818 12.2842 14.251C11.2327 14.6715 9.97103 14.8818 8.49902 14.8818H5.56738V12.8037ZM5.56738 15.624V13.5645H8.49902C10.2184 13.5645 11.641 13.7686 12.7666 14.1768C13.8923 14.585 14.7767 15.1292 15.4199 15.8096C16.0755 16.4899 16.5332 17.2383 16.793 18.0547C17.0651 18.8587 17.2012 19.6628 17.2012 20.4668C17.2012 21.7285 16.9847 22.848 16.5518 23.8252C16.1312 24.8024 15.5312 25.6312 14.752 26.3115C13.985 26.9919 13.082 27.5052 12.043 27.8516C11.0039 28.1979 9.87207 28.3711 8.64746 28.3711C7.47233 28.3711 6.36523 28.2041 5.32617 27.8701C4.29948 27.5361 3.3903 27.0537 2.59863 26.4229C1.80697 25.7796 1.18848 24.9941 0.743164 24.0664C0.297852 23.1263 0.0751953 22.0563 0.0751953 20.8564H3.50781C3.50781 21.7965 3.71191 22.6191 4.12012 23.3242C4.54069 24.0293 5.13444 24.5798 5.90137 24.9756C6.68066 25.359 7.59603 25.5508 8.64746 25.5508C9.69889 25.5508 10.6019 25.3714 11.3564 25.0127C12.1234 24.6416 12.7109 24.085 13.1191 23.3428C13.5397 22.6006 13.75 21.6667 13.75 20.541C13.75 19.4154 13.515 18.4938 13.0449 17.7764C12.5749 17.0465 11.9069 16.5085 11.041 16.1621C10.1875 15.8034 9.17936 15.624 8.0166 15.624H5.56738Z" fill="url(#paint0_linear_891_7964)"/>
<defs>
<linearGradient id="paint0_linear_891_7964" x1="12.5108" y1="47.0027" x2="1.21117" y2="46.0715" gradientUnits="userSpaceOnUse">
<stop stop-color="#3CB6E2"/>
<stop offset="0.749271" stop-color="#60C8EE"/>
</linearGradient>
</defs>
</svg>
