<svg width="18" height="29" viewBox="0 0 18 29" fill="none" xmlns="http://www.w3.org/2000/svg">
<path d="M3.89941 15.1416L1.15332 14.4365L2.50781 0.984375H16.3682V4.15723H5.4209L4.60449 11.5049C5.09928 11.2204 5.72396 10.9544 6.47852 10.707C7.24544 10.4596 8.1237 10.3359 9.11328 10.3359C10.3626 10.3359 11.4821 10.5524 12.4717 10.9854C13.4613 11.4059 14.3024 12.012 14.9951 12.8037C15.7002 13.5954 16.2383 14.5479 16.6094 15.6611C16.9805 16.7744 17.166 18.0176 17.166 19.3906C17.166 20.6895 16.9867 21.8831 16.6279 22.9717C16.2816 24.0602 15.7559 25.0127 15.0508 25.8291C14.3457 26.6331 13.4551 27.2578 12.3789 27.7031C11.3151 28.1484 10.0596 28.3711 8.6123 28.3711C7.52376 28.3711 6.49089 28.2227 5.51367 27.9258C4.54883 27.6165 3.68294 27.1527 2.91602 26.5342C2.16146 25.9033 1.54297 25.124 1.06055 24.1963C0.590495 23.2562 0.29362 22.1553 0.169922 20.8936H3.43555C3.58398 21.9079 3.88086 22.7614 4.32617 23.4541C4.77148 24.1468 5.35286 24.6725 6.07031 25.0312C6.80013 25.3776 7.64746 25.5508 8.6123 25.5508C9.42871 25.5508 10.1523 25.4085 10.7832 25.124C11.4141 24.8395 11.946 24.4313 12.3789 23.8994C12.8118 23.3675 13.1396 22.7243 13.3623 21.9697C13.5973 21.2152 13.7148 20.3678 13.7148 19.4277C13.7148 18.5742 13.5973 17.7826 13.3623 17.0527C13.1273 16.3229 12.7747 15.6859 12.3047 15.1416C11.847 14.5973 11.2842 14.1768 10.6162 13.8799C9.94824 13.5706 9.18132 13.416 8.31543 13.416C7.16504 13.416 6.29297 13.5706 5.69922 13.8799C5.11784 14.1891 4.5179 14.6097 3.89941 15.1416Z" fill="url(#paint0_linear_891_2692)"/>
<defs>
<linearGradient id="paint0_linear_891_2692" x1="11.5108" y1="47.0027" x2="0.211169" y2="46.0715" gradientUnits="userSpaceOnUse">
<stop stop-color="#3CB6E2"/>
<stop offset="0.749271" stop-color="#60C8EE"/>
</linearGradient>
</defs>
</svg>
