<svg width="18" height="29" viewBox="0 0 18 29" fill="none" xmlns="http://www.w3.org/2000/svg">
<path d="M13.7314 0.947266H14.0283V3.86035H13.7314C11.9131 3.86035 10.3916 4.15723 9.16699 4.75098C7.94238 5.33236 6.97135 6.11784 6.25391 7.10742C5.53646 8.08464 5.01693 9.18555 4.69531 10.4102C4.38607 11.6348 4.23145 12.8779 4.23145 14.1396V18.1104C4.23145 19.3102 4.3737 20.374 4.6582 21.3018C4.94271 22.2171 5.33236 22.9902 5.82715 23.6211C6.32194 24.252 6.87858 24.7282 7.49707 25.0498C8.12793 25.3714 8.78353 25.5322 9.46387 25.5322C10.2555 25.5322 10.9606 25.3838 11.5791 25.0869C12.1976 24.7777 12.7171 24.3509 13.1377 23.8066C13.5706 23.25 13.8984 22.5944 14.1211 21.8398C14.3438 21.0853 14.4551 20.2565 14.4551 19.3535C14.4551 18.5495 14.3561 17.7764 14.1582 17.0342C13.9603 16.2796 13.6572 15.6117 13.249 15.0303C12.8408 14.4365 12.3275 13.9727 11.709 13.6387C11.1029 13.2923 10.3792 13.1191 9.53809 13.1191C8.58561 13.1191 7.69499 13.3542 6.86621 13.8242C6.0498 14.2819 5.37565 14.888 4.84375 15.6426C4.32422 16.3848 4.02734 17.195 3.95312 18.0732L2.13477 18.0547C2.30794 16.6693 2.62956 15.488 3.09961 14.5107C3.58203 13.5212 4.17578 12.7171 4.88086 12.0986C5.59831 11.4678 6.39616 11.0101 7.27441 10.7256C8.16504 10.4287 9.10514 10.2803 10.0947 10.2803C11.443 10.2803 12.6058 10.5339 13.583 11.041C14.5602 11.5482 15.3643 12.2285 15.9951 13.082C16.626 13.9232 17.0898 14.8757 17.3867 15.9395C17.696 16.9909 17.8506 18.0732 17.8506 19.1865C17.8506 20.4606 17.6712 21.6543 17.3125 22.7676C16.9538 23.8809 16.4157 24.8581 15.6982 25.6992C14.9932 26.5404 14.1211 27.196 13.082 27.666C12.043 28.1361 10.8369 28.3711 9.46387 28.3711C8.00423 28.3711 6.73014 28.0742 5.6416 27.4805C4.55306 26.8743 3.65007 26.0703 2.93262 25.0684C2.21517 24.0664 1.67708 22.9531 1.31836 21.7285C0.959635 20.5039 0.780273 19.2607 0.780273 17.999V16.3848C0.780273 14.4798 0.972005 12.612 1.35547 10.7812C1.73893 8.95052 2.40072 7.29297 3.34082 5.80859C4.29329 4.32422 5.61068 3.1429 7.29297 2.26465C8.97526 1.38639 11.1214 0.947266 13.7314 0.947266Z" fill="url(#paint0_linear_891_7968)"/>
<defs>
<linearGradient id="paint0_linear_891_7968" x1="12.5108" y1="47.0027" x2="1.21117" y2="46.0715" gradientUnits="userSpaceOnUse">
<stop stop-color="#3CB6E2"/>
<stop offset="0.749271" stop-color="#60C8EE"/>
</linearGradient>
</defs>
</svg>
