<svg width="18" height="29" viewBox="0 0 18 29" fill="none" xmlns="http://www.w3.org/2000/svg">
<path d="M17.5908 20.6895C17.5908 22.3346 17.2074 23.7324 16.4404 24.8828C15.6859 26.0208 14.6592 26.8867 13.3604 27.4805C12.0739 28.0742 10.6204 28.3711 9 28.3711C7.37956 28.3711 5.91992 28.0742 4.62109 27.4805C3.32227 26.8867 2.29557 26.0208 1.54102 24.8828C0.786458 23.7324 0.40918 22.3346 0.40918 20.6895C0.40918 19.6133 0.613281 18.6299 1.02148 17.7393C1.44206 16.8363 2.02962 16.0508 2.78418 15.3828C3.55111 14.7148 4.4541 14.2015 5.49316 13.8428C6.5446 13.4717 7.70117 13.2861 8.96289 13.2861C10.6204 13.2861 12.0986 13.6077 13.3975 14.251C14.6963 14.8818 15.7168 15.7539 16.459 16.8672C17.2135 17.9805 17.5908 19.2546 17.5908 20.6895ZM14.1396 20.6152C14.1396 19.6133 13.9232 18.7288 13.4902 17.9619C13.0573 17.1826 12.4512 16.5765 11.6719 16.1436C10.8926 15.7106 9.98958 15.4941 8.96289 15.4941C7.91146 15.4941 7.00228 15.7106 6.23535 16.1436C5.48079 16.5765 4.89323 17.1826 4.47266 17.9619C4.05208 18.7288 3.8418 19.6133 3.8418 20.6152C3.8418 21.6543 4.0459 22.5449 4.4541 23.2871C4.87467 24.0169 5.46842 24.5798 6.23535 24.9756C7.01465 25.359 7.9362 25.5508 9 25.5508C10.0638 25.5508 10.9792 25.359 11.7461 24.9756C12.513 24.5798 13.1006 24.0169 13.5088 23.2871C13.9294 22.5449 14.1396 21.6543 14.1396 20.6152ZM16.96 8.0166C16.96 9.3278 16.6136 10.5091 15.9209 11.5605C15.2282 12.612 14.2819 13.4408 13.082 14.0469C11.8822 14.653 10.5215 14.9561 9 14.9561C7.45378 14.9561 6.07454 14.653 4.8623 14.0469C3.66243 13.4408 2.72233 12.612 2.04199 11.5605C1.36165 10.5091 1.02148 9.3278 1.02148 8.0166C1.02148 6.44564 1.36165 5.1097 2.04199 4.00879C2.7347 2.90788 3.68099 2.06673 4.88086 1.48535C6.08073 0.903971 7.44759 0.613281 8.98145 0.613281C10.5277 0.613281 11.9007 0.903971 13.1006 1.48535C14.3005 2.06673 15.2406 2.90788 15.9209 4.00879C16.6136 5.1097 16.96 6.44564 16.96 8.0166ZM13.5273 8.07227C13.5273 7.16927 13.3356 6.37142 12.9521 5.67871C12.5687 4.986 12.0368 4.44173 11.3564 4.0459C10.6761 3.6377 9.88444 3.43359 8.98145 3.43359C8.07845 3.43359 7.28678 3.62533 6.60645 4.00879C5.93848 4.37988 5.41276 4.91178 5.0293 5.60449C4.6582 6.2972 4.47266 7.11979 4.47266 8.07227C4.47266 9 4.6582 9.81022 5.0293 10.5029C5.41276 11.1956 5.94466 11.7337 6.625 12.1172C7.30534 12.5007 8.09701 12.6924 9 12.6924C9.90299 12.6924 10.6885 12.5007 11.3564 12.1172C12.0368 11.7337 12.5687 11.1956 12.9521 10.5029C13.3356 9.81022 13.5273 9 13.5273 8.07227Z" fill="url(#paint0_linear_891_7976)"/>
<defs>
<linearGradient id="paint0_linear_891_7976" x1="12.5108" y1="47.0027" x2="1.21117" y2="46.0715" gradientUnits="userSpaceOnUse">
<stop stop-color="#3CB6E2"/>
<stop offset="0.749271" stop-color="#60C8EE"/>
</linearGradient>
</defs>
</svg>
