<svg width="18" height="29" viewBox="0 0 18 29" fill="none" xmlns="http://www.w3.org/2000/svg">
<path d="M3.97168 25.124H4.32422C6.30339 25.124 7.91146 24.8457 9.14844 24.2891C10.3854 23.7324 11.3379 22.984 12.0059 22.0439C12.6738 21.1038 13.1315 20.0462 13.3789 18.8711C13.6263 17.6836 13.75 16.4652 13.75 15.2158V11.0781C13.75 9.85352 13.6077 8.76497 13.3232 7.8125C13.0511 6.86003 12.6676 6.06217 12.1729 5.41895C11.6904 4.77572 11.14 4.28711 10.5215 3.95312C9.90299 3.61914 9.2474 3.45215 8.55469 3.45215C7.76302 3.45215 7.05176 3.61296 6.4209 3.93457C5.80241 4.24382 5.27669 4.68294 4.84375 5.25195C4.42318 5.82096 4.10156 6.48893 3.87891 7.25586C3.65625 8.02279 3.54492 8.85775 3.54492 9.76074C3.54492 10.5648 3.64388 11.3441 3.8418 12.0986C4.03971 12.8532 4.34277 13.5335 4.75098 14.1396C5.15918 14.7458 5.66634 15.2282 6.27246 15.5869C6.89095 15.9333 7.61458 16.1064 8.44336 16.1064C9.21029 16.1064 9.92773 15.958 10.5957 15.6611C11.276 15.3519 11.876 14.9375 12.3955 14.418C12.9274 13.8861 13.348 13.2861 13.6572 12.6182C13.9788 11.9502 14.1644 11.2513 14.2139 10.5215H15.8467C15.8467 11.5482 15.6426 12.5625 15.2344 13.5645C14.8385 14.554 14.2819 15.457 13.5645 16.2734C12.847 17.0898 12.0059 17.7454 11.041 18.2402C10.0762 18.7227 9.02474 18.9639 7.88672 18.9639C6.55078 18.9639 5.39421 18.7041 4.41699 18.1846C3.43978 17.665 2.63574 16.9723 2.00488 16.1064C1.38639 15.2406 0.922526 14.2757 0.613281 13.2119C0.316406 12.1357 0.167969 11.0472 0.167969 9.94629C0.167969 8.65983 0.347331 7.45378 0.706055 6.32812C1.06478 5.20247 1.59668 4.21289 2.30176 3.35938C3.00684 2.49349 3.87891 1.81934 4.91797 1.33691C5.9694 0.854492 7.18164 0.613281 8.55469 0.613281C10.1009 0.613281 11.4183 0.922526 12.5068 1.54102C13.5954 2.15951 14.4798 2.98828 15.1602 4.02734C15.8529 5.06641 16.36 6.23535 16.6816 7.53418C17.0033 8.83301 17.1641 10.1689 17.1641 11.542V12.7852C17.1641 14.1829 17.0713 15.6055 16.8857 17.0527C16.7126 18.4876 16.3724 19.8607 15.8652 21.1719C15.3704 22.4831 14.6468 23.6582 13.6943 24.6973C12.7419 25.724 11.4987 26.5404 9.96484 27.1465C8.44336 27.7402 6.56315 28.0371 4.32422 28.0371H3.97168V25.124Z" fill="url(#paint0_linear_891_7972)"/>
<defs>
<linearGradient id="paint0_linear_891_7972" x1="12.5108" y1="47.0027" x2="1.21117" y2="46.0715" gradientUnits="userSpaceOnUse">
<stop stop-color="#3CB6E2"/>
<stop offset="0.749271" stop-color="#60C8EE"/>
</linearGradient>
</defs>
</svg>
