<svg width="36" height="27" viewBox="0 0 36 27" fill="none" xmlns="http://www.w3.org/2000/svg">
<path fill-rule="evenodd" clip-rule="evenodd" d="M9.64033 2.55705C9.49502 2.69887 9.33895 2.85429 9.13056 3.06399C9.13056 3.06399 5.69728 6.50061 5.68581 6.51053C5.5793 6.6116 5.49066 6.69803 5.39877 6.7894C5.35655 6.83163 5.31899 6.86877 5.2389 6.94758C5.17004 7.01533 5.13815 7.04679 5.09847 7.08629L1.99423 10.195C1.92761 10.2641 1.87045 10.3223 1.79694 10.3962L1.71325 10.4803C1.61847 10.5753 1.54349 10.6526 1.43751 10.7632C1.19441 11.0031 0.947906 11.2745 0.715792 11.5591C0.500121 11.7891 0.326006 12.055 0.201346 12.3449L0.168408 12.4327C-0.056136 13.128 -0.056136 13.8764 0.168408 14.5718L0.202795 14.6628C0.3284 14.9521 0.503441 15.217 0.719929 15.4459C0.951064 15.73 1.19739 16.0014 1.45783 16.2589C1.51261 16.318 1.59335 16.4005 1.70117 16.5083C1.77565 16.5828 1.8077 16.6149 1.84762 16.6552C1.89919 16.7073 1.94377 16.7528 1.98515 16.7957L5.09757 19.9148C5.25179 20.069 5.32081 20.1375 5.44432 20.2581C5.54584 20.3584 5.60592 20.4169 5.71717 20.5196L9.13363 23.942C9.3897 24.1982 9.50457 24.3126 9.64937 24.4549C9.83759 24.6432 9.96166 24.7649 10.1555 24.9544C10.2285 25.0314 10.2558 25.0597 10.2933 25.0947C10.7306 25.5343 11.2641 25.9228 11.8483 26.221C12.4331 26.5156 13.053 26.7203 13.6929 26.8308C14.2924 26.9296 14.8906 26.9823 15.4903 26.9899C15.7446 26.9955 15.9998 26.9989 16.2518 26.9999L16.8522 26.9999H28.0206C28.2525 26.9999 28.4822 26.9966 28.8008 26.9897C29.3969 26.9824 30.0011 26.9294 30.5988 26.8312C31.2514 26.7184 31.8757 26.5119 32.4595 26.2168C33.051 25.9176 33.5908 25.5262 34.059 25.0571C34.525 24.5891 34.9147 24.0523 35.2149 23.4652C35.5122 22.8734 35.7179 22.2478 35.8286 21.6022C35.9276 20.997 35.9802 20.393 35.9874 19.7876C35.992 19.639 35.9941 19.508 35.9976 19.2165L35.9999 19.0299L36 18.11V7.9258L35.9983 7.7647C35.9963 7.58502 35.9954 7.50655 35.9936 7.40586C35.992 7.31144 35.99 7.22481 35.9876 7.14137C35.9808 6.55936 35.9287 5.96075 35.8319 5.36857C35.7206 4.72034 35.5166 4.09999 35.2253 3.51949C34.9236 2.9297 34.5365 2.3969 34.0744 1.93327C33.6121 1.46753 33.0764 1.07783 32.4892 0.780453C31.9098 0.487295 31.2904 0.282028 30.651 0.171209C30.0487 0.0732186 29.4503 0.0209437 28.8506 0.0130879C28.5791 0.00650984 28.3285 0.00300049 28.0876 0.00300049C27.8444 0.00050541 27.6433 0 27.1917 0H17.1486C16.7004 0 16.4979 0.000508487 16.2438 0.0030505C16.0134 0.00300049 15.7636 0.00648745 15.4772 0.0132833C14.8889 0.0210104 14.2915 0.0732949 13.7005 0.169514C13.0504 0.282212 12.4305 0.487256 11.8507 0.779705C11.2621 1.07963 10.7283 1.46866 10.2655 1.93416C10.2441 1.95526 10.2284 1.97178 10.0974 2.11169C9.93481 2.26587 9.78533 2.4115 9.64033 2.55705ZM5.75361 6.4537L5.75734 6.45079C5.75284 6.45418 5.74971 6.45653 5.74584 6.45974L5.75361 6.4537ZM10.5483 22.5276L7.0953 19.0686C7.0953 19.0686 7.02642 19.0059 7.01926 18.9998C6.96597 18.9489 6.92014 18.9041 6.80566 18.7909C6.72303 18.7107 6.65874 18.6469 6.51237 18.5005L3.41243 15.3941C3.37607 15.3562 3.32543 15.3045 3.26798 15.2466C3.22531 15.2035 3.19085 15.1689 3.11534 15.0934C3.02041 14.9985 2.95226 14.9288 2.88872 14.8614C2.64598 14.6205 2.44049 14.393 2.24826 14.1546L2.18238 14.0807C2.13152 14.029 2.08893 13.9699 2.05603 13.9055C1.98097 13.6409 1.98116 13.3605 2.0566 13.096C2.08954 13.0304 2.13237 12.9702 2.18365 12.9175L2.24422 12.8492C2.43751 12.6103 2.64387 12.3822 2.86237 12.1661C2.97943 12.0445 3.0471 11.9748 3.09827 11.9229L3.16639 11.855L3.21425 11.807C3.29559 11.7253 3.36064 11.659 3.42308 11.594L6.51127 8.50165C6.54516 8.46792 6.57387 8.43959 6.65503 8.35973C6.72519 8.29069 6.76581 8.25053 6.81083 8.2055C6.88048 8.13624 6.94899 8.06926 7.01628 8.00474C7.03106 7.99238 7.04828 7.97641 7.09729 7.93095L10.5473 4.47543C10.7509 4.27051 10.9007 4.12136 11.0473 3.97815C11.1883 3.83677 11.3243 3.70421 11.4682 3.56769C11.5001 3.53791 11.5192 3.51798 11.6073 3.42451C11.6531 3.37587 11.6754 3.35243 11.6769 3.35093C11.9971 3.02892 12.3587 2.76538 12.7548 2.56349C13.1549 2.36175 13.5865 2.21897 14.0321 2.14169C14.5154 2.06306 15.0142 2.0194 15.5142 2.01279C15.7965 2.00615 16.0309 2.00287 16.2539 2.00287C16.5092 2.00037 16.7072 1.99987 17.1488 1.99987H27.1919C27.6367 1.99987 27.8334 2.00037 28.0777 2.00282C28.3111 2.00287 28.5462 2.00617 28.8137 2.01259C29.3256 2.01935 29.8254 2.06302 30.32 2.14344C30.7539 2.2187 31.1842 2.36129 31.5864 2.56481C31.9824 2.76537 32.344 3.0284 32.657 3.34373C32.9739 3.66168 33.2382 4.02544 33.4418 4.42335C33.6412 4.82077 33.7833 5.25295 33.8599 5.6989C33.9392 6.18409 33.9826 6.68274 33.9885 7.18255C33.9911 7.27495 33.9929 7.35331 33.9944 7.43979C33.996 7.53474 33.9969 7.6104 33.9988 7.78575L34.0005 7.93735L34.0004 8.82199V19.0073L33.9981 19.1924C33.9948 19.4721 33.9928 19.5951 33.9884 19.7457C33.982 20.2686 33.9381 20.7726 33.8566 21.2712C33.7805 21.7144 33.6368 22.1514 33.4314 22.5603C33.229 22.9562 32.9619 23.324 32.6431 23.6442C32.3259 23.962 31.9591 24.228 31.5575 24.4312C31.151 24.6366 30.7159 24.7806 30.2667 24.8582C29.7763 24.9388 29.2721 24.983 28.7669 24.9892C28.4521 24.996 28.2352 24.9991 28.0208 24.9991H16.2559C16.0202 24.9982 15.777 24.9949 15.525 24.9894C15.0164 24.9829 14.5183 24.939 14.0257 24.8579C13.588 24.7823 13.1564 24.6398 12.7526 24.4364C12.3606 24.2363 11.9982 23.9723 11.6836 23.6568C11.6648 23.6383 11.6387 23.6113 11.6056 23.5764L11.6015 23.5721C11.5228 23.4891 11.505 23.4704 11.4864 23.4525L11.4639 23.4314C11.3496 23.3241 11.2379 23.2145 11.0572 23.0337C10.9118 22.8907 10.7997 22.7791 10.5483 22.5276ZM17.7187 18.793C17.6377 18.8731 17.5407 18.9386 17.4312 18.9839C17.0961 19.1227 16.7103 19.046 16.4538 18.7894C16.285 18.6212 16.1901 18.3926 16.1901 18.1543C16.1901 17.9159 16.285 17.6874 16.4538 17.5191V17.5211C16.5022 17.4727 16.5551 17.4308 16.6115 17.3954L20.5032 13.4978L16.4538 9.45171L16.4671 9.43841C16.3863 9.35713 16.3205 9.25968 16.2749 9.14966C16.1361 8.81451 16.2128 8.42874 16.4694 8.17224C16.6377 8.00284 16.8667 7.90757 17.1055 7.90757C17.3444 7.90757 17.5733 8.00284 17.7417 8.17224H17.7377C17.7815 8.21601 17.82 8.26353 17.8531 8.31392L21.7698 12.2293L25.6986 8.2944C25.7289 8.25062 25.7635 8.20893 25.8025 8.16995C26.059 7.91343 26.4448 7.83668 26.7799 7.9755C27.1151 8.11431 27.3336 8.44135 27.3336 8.80411C27.3336 9.04549 27.2368 9.27106 27.0734 9.43588L27.0837 9.44618L23.0385 13.4976L26.9527 17.4105C27.0011 17.4428 27.0465 17.48 27.0883 17.5218L27.0863 17.5238C27.3428 17.7803 27.4196 18.166 27.2807 18.5012C27.1419 18.8363 26.8149 19.0549 26.4521 19.0549C26.2111 19.0549 25.9858 18.9584 25.821 18.7952L25.813 18.8032L21.7722 14.7658L17.735 18.8092L17.7187 18.793Z" fill="url(#paint0_linear_475_10537)"/>
<defs>
<linearGradient id="paint0_linear_475_10537" x1="23.745" y1="32.2841" x2="6.06233" y2="28.2218" gradientUnits="userSpaceOnUse">
<stop stop-color="#3CB6E2"/>
<stop offset="0.749271" stop-color="#60C8EE"/>
</linearGradient>
</defs>
</svg>
