<svg width="42" height="42" viewBox="0 0 42 42" fill="none" xmlns="http://www.w3.org/2000/svg">
<path d="M40.5 29C41.3284 29 42 29.6716 42 30.5V33.4493C42 35.911 41.765 37.1281 41.0881 38.3937C40.469 39.5514 39.5514 40.469 38.3937 41.0881C37.1281 41.765 35.911 42 33.4493 42H30.5C29.6716 42 29 41.3284 29 40.5C29 39.6716 29.6716 39 30.5 39H33.4493C35.4581 39 36.2073 38.8553 36.9789 38.4427C37.6138 38.1031 38.1031 37.6138 38.4427 36.9789C38.8553 36.2073 39 35.4581 39 33.4493V30.5C39 29.6716 39.6716 29 40.5 29ZM1.5 29C2.32843 29 3 29.6716 3 30.5V33.4493C3 35.4581 3.14468 36.2073 3.55733 36.9789C3.89688 37.6138 4.38618 38.1031 5.02107 38.4427C5.79267 38.8553 6.54189 39 8.55068 39H11.5C12.3284 39 13 39.6716 13 40.5C13 41.3284 12.3284 42 11.5 42H8.55068C6.08899 42 4.8719 41.765 3.60628 41.0881C2.44858 40.469 1.53104 39.5514 0.911895 38.3937C0.235031 37.1281 0 35.911 0 33.4493V30.5C0 29.6716 0.671573 29 1.5 29ZM15.1903 28.2478C16.8983 29.3847 18.9014 30 21 30C23.0953 30 25.0955 29.3866 26.8017 28.2531C27.4918 27.7947 28.4228 27.9825 28.8812 28.6725C29.3396 29.3625 29.1519 30.2935 28.4618 30.7519C26.2673 32.2098 23.6905 33 21 33C18.3053 33 15.7246 32.2073 13.528 30.7452C12.8384 30.2861 12.6515 29.355 13.1105 28.6653C13.5695 27.9757 14.5007 27.7888 15.1903 28.2478ZM21.5 12C22.3284 12 23 12.6716 23 13.5V21C23 23.2091 21.2091 25 19 25C18.1716 25 17.5 24.3284 17.5 23.5C17.5 22.6716 18.1716 22 19 22C19.5128 22 19.9355 21.614 19.9933 21.1166L20 21V13.5C20 12.6716 20.6716 12 21.5 12ZM12.5 12C13.3284 12 14 12.6716 14 13.5V16.5C14 17.3284 13.3284 18 12.5 18C11.6716 18 11 17.3284 11 16.5V13.5C11 12.6716 11.6716 12 12.5 12ZM29.5 12C30.3284 12 31 12.6716 31 13.5V16.5C31 17.3284 30.3284 18 29.5 18C28.6716 18 28 17.3284 28 16.5V13.5C28 12.6716 28.6716 12 29.5 12ZM33.4493 0C35.911 0 37.1281 0.235031 38.3937 0.911895C39.5514 1.53104 40.469 2.44858 41.0881 3.60628C41.765 4.8719 42 6.08899 42 8.55068V11.5C42 12.3284 41.3284 13 40.5 13C39.6716 13 39 12.3284 39 11.5V8.55068C39 6.54189 38.8553 5.79267 38.4427 5.02107C38.1031 4.38618 37.6138 3.89688 36.9789 3.55733C36.2073 3.14468 35.4581 3 33.4493 3H30.5C29.6716 3 29 2.32843 29 1.5C29 0.671573 29.6716 0 30.5 0H33.4493ZM11.5 0C12.3284 0 13 0.671573 13 1.5C13 2.32843 12.3284 3 11.5 3H8.55068C6.54189 3 5.79267 3.14468 5.02107 3.55733C4.38618 3.89688 3.89688 4.38618 3.55733 5.02107C3.14468 5.79267 3 6.54189 3 8.55068V11.5C3 12.3284 2.32843 13 1.5 13C0.671573 13 0 12.3284 0 11.5V8.55068C0 6.08899 0.235031 4.8719 0.911895 3.60628C1.53104 2.44858 2.44858 1.53104 3.60628 0.911895C4.8719 0.235031 6.08899 0 8.55068 0H11.5Z" fill="url(#paint0_linear_475_10536)"/>
<defs>
<linearGradient id="paint0_linear_475_10536" x1="27.7025" y1="50.2198" x2="6.61011" y2="46.5856" gradientUnits="userSpaceOnUse">
<stop stop-color="#3CB6E2"/>
<stop offset="0.749271" stop-color="#60C8EE"/>
</linearGradient>
</defs>
</svg>
